<svg width="65" height="65" viewBox="0 0 65 65" fill="none" xmlns="http://www.w3.org/2000/svg">
<circle cx="32.5" cy="32.5" r="32.5" fill="#0156FF"/>
<path d="M32.9121 20.3923C26.1068 20.3923 20.5703 25.9289 20.5703 32.7341V37.8473C20.5703 39.1111 21.6774 40.1392 23.0387 40.1392H24.2728C24.6002 40.1392 24.9141 40.0091 25.1455 39.7777C25.377 39.5462 25.507 39.2323 25.507 38.905V32.5576C25.507 32.2303 25.377 31.9164 25.1455 31.6849C24.9141 31.4535 24.6002 31.3234 24.2728 31.3234H23.1522C23.8384 26.5472 27.9482 22.8607 32.9121 22.8607C37.8759 22.8607 41.9858 26.5472 42.672 31.3234H41.5513C41.224 31.3234 40.9101 31.4535 40.6786 31.6849C40.4472 31.9164 40.3172 32.2303 40.3172 32.5576V40.1392C40.3172 41.5005 39.2101 42.6075 37.8488 42.6075H35.3804V41.3733H30.4437V45.0759H37.8488C40.5714 45.0759 42.7855 42.8618 42.7855 40.1392C44.1468 40.1392 45.2539 39.1111 45.2539 37.8473V32.7341C45.2539 25.9289 39.7173 20.3923 32.9121 20.3923Z" fill="white"/>
</svg>
