<svg width="110" height="50" viewBox="0 0 110 50" fill="none" xmlns="http://www.w3.org/2000/svg">
<rect width="110" height="50" fill="white"/>
<rect width="32" height="32" transform="translate(19 9)" fill="white"/>
<rect x="25.4004" y="15.4" width="4.57143" height="4.57143" fill="#A2A6B0"/>
<rect x="25.4004" y="22.7143" width="4.57143" height="4.57143" fill="#A2A6B0"/>
<rect x="25.4004" y="30.0286" width="4.57143" height="4.57143" fill="#A2A6B0"/>
<rect x="32.7139" y="22.7143" width="4.57143" height="4.57143" fill="#A2A6B0"/>
<rect x="32.7139" y="30.0286" width="4.57143" height="4.57143" fill="#A2A6B0"/>
<rect x="32.7139" y="15.4" width="4.57143" height="4.57143" fill="#A2A6B0"/>
<rect x="40.0283" y="22.7143" width="4.57143" height="4.57143" fill="#A2A6B0"/>
<rect x="40.0283" y="30.0286" width="4.57143" height="4.57143" fill="#A2A6B0"/>
<rect x="40.0283" y="15.4" width="4.57143" height="4.57143" fill="#A2A6B0"/>
<rect width="32" height="32" transform="translate(60 9)" fill="white"/>
<rect x="64.5713" y="30.0286" width="9.14286" height="2.74286" fill="black"/>
<rect x="64.5713" y="17.2286" width="21.9429" height="2.74286" fill="black"/>
<rect x="64.5713" y="23.6286" width="16.4571" height="2.74286" fill="black"/>
</svg>
