<svg width="34" height="22" viewBox="0 0 34 22" fill="none" xmlns="http://www.w3.org/2000/svg">
<g clip-path="url(#clip0_1646_16401)">
<path d="M0 2.75C0 1.23122 1.24537 0 2.78161 0H30.5977C32.1339 0 33.3793 1.23122 33.3793 2.75V19.25C33.3793 20.7688 32.1339 22 30.5977 22H2.78161C1.24537 22 0 20.7688 0 19.25V2.75Z" fill="#CCEFFF"/>
<path d="M20.3402 17.4885H13.0391V4.51639H20.3402V17.4885Z" fill="#6C6BBD"/>
<path d="M13.5074 11C13.5074 8.36855 14.7536 6.02452 16.6943 4.51393C15.2751 3.40932 13.484 2.75001 11.5375 2.75001C6.92925 2.75001 3.19374 6.4436 3.19374 11C3.19374 15.5564 6.92925 19.25 11.5375 19.25C13.484 19.25 15.2751 18.5907 16.6943 17.4861C14.7536 15.9755 13.5074 13.6315 13.5074 11Z" fill="#EB001B"/>
<path d="M30.188 11C30.188 15.5564 26.4525 19.25 21.8442 19.25C19.8977 19.25 18.1066 18.5907 16.6869 17.4861C18.6281 15.9755 19.8744 13.6315 19.8744 11C19.8744 8.36855 18.6281 6.02452 16.6869 4.51393C18.1066 3.40932 19.8977 2.75001 21.8442 2.75001C26.4525 2.75001 30.188 6.4436 30.188 11Z" fill="#0099DF"/>
</g>
<defs>
<clipPath id="clip0_1646_16401">
<rect width="33.3141" height="21.957" fill="white" transform="scale(1.00196)"/>
</clipPath>
</defs>
</svg>
