<svg width="65" height="65" viewBox="0 0 65 65" fill="none" xmlns="http://www.w3.org/2000/svg">
<circle cx="32.5" cy="32.5" r="32.5" fill="#0156FF"/>
<g clip-path="url(#clip0_0_17)">
<path d="M45.2047 20.9947C45.1293 20.8068 44.9844 20.6553 44.8001 20.5716C44.6158 20.4879 44.4063 20.4785 44.2152 20.5453C44.0242 20.6121 43.8662 20.75 43.7742 20.9303C43.6823 21.1106 43.6633 21.3195 43.7214 21.5134C44.9291 24.9844 42.5319 27.5766 40.7041 28.965L39.9657 27.9068C39.7174 27.5519 39.1623 27.2568 38.7307 27.2516L34.5863 27.2698C34.08 27.2851 33.5873 27.4369 33.1602 27.7092L20.948 36.2723C20.6639 36.4722 20.4707 36.7765 20.4105 37.1185C20.3503 37.4606 20.4281 37.8126 20.6269 38.0975L26.1766 46.0379C26.5926 46.6294 27.2569 46.5579 27.8497 46.1445L40.0619 37.5801C40.4129 37.3318 40.8185 36.7962 40.9615 36.3867L42.2589 32.2982C42.4019 31.89 42.3148 31.2673 42.0665 30.9124L41.6167 30.2676C44.0711 28.3865 46.6191 25.0624 45.2047 20.9947ZM39.5224 33.1601C39.2974 33.3175 39.0436 33.4292 38.7755 33.4885C38.5074 33.5479 38.2302 33.5538 37.9597 33.506C37.6893 33.4582 37.431 33.3576 37.1994 33.2099C36.9679 33.0622 36.7678 32.8703 36.6104 32.6453C36.2918 32.1898 36.1669 31.6266 36.2632 31.0792C36.3595 30.5317 36.669 30.0449 37.1239 29.7255C37.4805 29.4756 37.9063 29.3434 38.3416 29.3474C38.777 29.3514 39.2003 29.4913 39.5523 29.7476C39.1987 29.9608 38.9556 30.0856 38.9101 30.1051C38.749 30.1819 38.6187 30.3112 38.5406 30.4718C38.4626 30.6323 38.4414 30.8146 38.4805 30.9888C38.5196 31.163 38.6168 31.3188 38.756 31.4305C38.8952 31.5423 39.0683 31.6034 39.2468 31.604C39.3586 31.604 39.473 31.578 39.5809 31.5273C39.8331 31.4077 40.1035 31.266 40.3856 31.0983C40.4505 31.4883 40.4039 31.8888 40.2512 32.2536C40.0985 32.6183 39.8459 32.9326 39.5224 33.1601Z" fill="white"/>
</g>
<defs>
<clipPath id="clip0_0_17">
<rect width="26" height="26" fill="white" transform="translate(20 20.4683)"/>
</clipPath>
</defs>
</svg>
