<svg width="61" height="21" viewBox="0 0 61 21" fill="none" xmlns="http://www.w3.org/2000/svg">
<g clip-path="url(#clip0_1646_15935)">
<path d="M21.6145 7.86421L16.732 12.0733H4.63932C3.51137 12.0718 2.42184 12.4659 1.57617 13.1812L7.67522 7.9221L7.7688 7.84265L15.4101 1.24865C16.6422 0.186524 18.372 -0.164998 19.9479 0.326495C21.5237 0.817988 22.7063 2.07783 23.0501 3.63144C23.3939 5.18506 22.8466 6.79642 21.6145 7.85854V7.86421Z" fill="#F15B41"/>
<path d="M4.63973 9.00709C7.20218 9.00709 9.27946 7.0164 9.27946 4.56076C9.27946 2.10513 7.20218 0.114441 4.63973 0.114441C2.07728 0.114441 0 2.10513 0 4.56076C0 7.0164 2.07728 9.00709 4.63973 9.00709Z" fill="#F99D1D"/>
<path d="M4.63917 12.0733C3.51122 12.0718 2.42169 12.4659 1.57602 13.1812L1.53693 13.2152C-0.36806 14.8571 -0.523445 17.6681 1.18987 19.4937C2.90319 21.3192 5.83641 21.4682 7.7414 19.8263L16.733 12.0744L4.63917 12.0733Z" fill="#272560"/>
<path d="M16.7256 12.0767L7.73301 19.8285C6.88151 20.5623 5.77598 20.9668 4.63086 20.9637L18.5047 20.9637C21.1807 20.9227 23.0701 18.9933 23.0701 16.5179C23.0701 14.0425 21.0378 12.1109 18.5047 12.0721L16.7256 12.0767Z" fill="#00B6BD"/>
<path d="M29.7972 17.2466C29.4109 17.2603 29.0372 17.1142 28.7717 16.8459C28.5118 16.575 28.3732 16.2177 28.3855 15.8504C28.3819 15.4805 28.4776 15.1158 28.6636 14.7913C28.8269 14.5011 29.0264 14.2309 29.2577 13.9865L34.9982 7.78639H29.9944C29.5096 7.78639 29.1627 7.62747 28.9725 7.31191C28.7874 6.9949 28.6951 6.63612 28.7052 6.27326C28.6918 5.92354 28.7973 5.57908 29.0058 5.29137C29.2125 5.01908 29.5489 4.8646 29.9006 4.88045H38.7413C39.1151 4.86399 39.4796 4.99443 39.7501 5.24142C40.0009 5.48093 40.128 5.82147 40.128 6.25283C40.1386 6.58872 40.0653 6.92219 39.9141 7.22564C39.7691 7.49001 39.5872 7.7344 39.3734 7.95212L33.3953 14.3395H39.0597C39.4005 14.3314 39.7249 14.479 39.9331 14.7368C40.155 15.0251 40.2669 15.3772 40.2504 15.7346C40.2666 16.107 40.1731 16.4763 39.9807 16.8005C39.787 17.0968 39.4436 17.2477 38.9611 17.2477L29.7972 17.2466Z" fill="#272560"/>
<path d="M43.6848 17.4101C42.1115 17.4101 41.7836 16.6382 41.7836 15.9911V6.54681C41.7836 6.05303 41.9392 5.65346 42.2482 5.35946C42.5571 5.06546 43.0491 4.91563 43.7121 4.91563C44.2706 4.91563 44.7127 5.03708 45.0276 5.27773C45.3424 5.51838 45.5171 5.9066 45.5171 6.40606V15.9412C45.5171 16.4599 45.346 16.8414 45.0085 17.0763C44.6711 17.3113 44.2374 17.4101 43.6848 17.4101ZM43.6848 3.90195C43.0717 3.90195 42.569 3.73054 42.1888 3.39227C41.8085 3.054 41.6101 2.58746 41.6101 2.01422C41.5955 1.50602 41.8045 1.01523 42.1864 0.661138C42.5631 0.308111 43.0681 0.127625 43.6848 0.127625C44.1934 0.128684 44.6877 0.288088 45.0929 0.581679C45.5349 0.892706 45.7595 1.37627 45.7595 2.01876C45.7595 2.592 45.5647 3.05627 45.1808 3.39795C44.797 3.73962 44.2944 3.90535 43.6848 3.90535V3.90195Z" fill="#272560"/>
<path d="M49.619 21.0291C48.1479 21.0291 47.8366 20.2447 47.8366 19.5863V6.22675C47.8239 5.80831 47.9924 5.40338 48.3024 5.10749C48.6102 4.81349 49.1033 4.66365 49.7664 4.66365C50.1788 4.65965 50.5862 4.74995 50.9546 4.92701C51.3456 5.11885 51.5488 5.49458 51.5488 6.03377C51.628 5.94675 51.7131 5.85745 51.8042 5.76588C52.054 5.52371 52.3332 5.31105 52.636 5.13247C53.372 4.69364 54.2247 4.46664 55.0922 4.47862C55.9234 4.4632 56.747 4.63345 57.4972 4.97582C58.1838 5.29958 58.7816 5.77229 59.2428 6.35616C59.7234 6.98066 60.0744 7.68735 60.2766 8.43802C60.5079 9.28624 60.6214 10.1599 60.6141 11.0364C60.6226 11.9292 60.492 12.8183 60.2267 13.6744C59.9922 14.435 59.6074 15.1455 59.0931 15.7677C58.5975 16.3539 57.9694 16.8254 57.256 17.1469C56.4797 17.4869 55.6335 17.6564 54.7797 17.6429C54.2078 17.6586 53.6374 17.5819 53.0923 17.4159C52.7009 17.2891 52.3289 17.1131 51.986 16.8926C51.8002 16.7721 51.6289 16.6324 51.4751 16.476V19.5182C51.4751 20.0472 51.3242 20.4377 51.0259 20.6783C50.7277 20.919 50.269 21.0291 49.619 21.0291ZM54.1416 7.50493C53.7367 7.49557 53.3361 7.58587 52.9782 7.76714C52.6415 7.94954 52.353 8.20309 52.1346 8.5084C51.8892 8.85382 51.7102 9.23819 51.6058 9.64354C51.4828 10.1146 51.4225 10.5986 51.4264 11.084C51.4264 12.1897 51.664 13.0762 52.1393 13.7199C52.6146 14.3635 53.2599 14.6643 54.1463 14.6643C55.0328 14.6643 55.678 14.3419 56.126 13.6779C56.5739 13.0138 56.8128 12.1295 56.8128 11.084C56.8143 10.5999 56.752 10.1174 56.6274 9.64808C56.523 9.24448 56.3478 8.86068 56.1093 8.51294C55.8972 8.20721 55.6121 7.95394 55.2775 7.77396C54.9294 7.59251 54.5381 7.49986 54.1416 7.50493Z" fill="#272560"/>
</g>
<defs>
<clipPath id="clip0_1646_15935">
<rect width="61" height="21" fill="white"/>
</clipPath>
</defs>
</svg>
