<svg width="30" height="30" viewBox="0 0 30 30" fill="none" xmlns="http://www.w3.org/2000/svg">
<path d="M14.9999 2.49999C8.10738 2.49999 2.4999 8.10747 2.4999 14.9999V20.1787C2.4999 21.4587 3.62114 22.4999 4.99989 22.4999H6.24988C6.5814 22.4999 6.89934 22.3682 7.13376 22.1338C7.36818 21.8994 7.49988 21.5814 7.49988 21.2499V14.8212C7.49988 14.4897 7.36818 14.1717 7.13376 13.9373C6.89934 13.7029 6.5814 13.5712 6.24988 13.5712H5.11489C5.80989 8.73372 9.97237 4.99998 14.9999 4.99998C20.0273 4.99998 24.1898 8.73372 24.8848 13.5712H23.7498C23.4183 13.5712 23.1004 13.7029 22.8659 13.9373C22.6315 14.1717 22.4998 14.4897 22.4998 14.8212V22.4999C22.4998 23.8787 21.3786 24.9999 19.9998 24.9999H17.4998V23.7499H12.4999V27.4999H19.9998C22.7573 27.4999 24.9998 25.2574 24.9998 22.4999C26.3786 22.4999 27.4998 21.4587 27.4998 20.1787V14.9999C27.4998 8.10747 21.8923 2.49999 14.9999 2.49999Z" fill="white"/>
</svg>
