<svg width="18" height="18" viewBox="0 0 18 18" fill="none" xmlns="http://www.w3.org/2000/svg">
<path d="M3.52613 15.568H3.60276L7.15324 15.2445C7.54218 15.2057 7.90594 15.0344 8.18348 14.7592L15.8464 7.09626C16.1438 6.78205 16.3045 6.36275 16.2934 5.93025C16.2822 5.49774 16.1 5.0873 15.7868 4.78887L13.4539 2.45594C13.1494 2.16994 12.7504 2.00583 12.3328 1.99484C11.9152 1.98386 11.5081 2.12675 11.189 2.39634L3.52613 10.0593C3.25092 10.3368 3.07956 10.7006 3.04081 11.0895L2.6747 14.64C2.66323 14.7647 2.67941 14.8904 2.72209 15.0081C2.76477 15.1259 2.8329 15.2327 2.92161 15.3211C3.00117 15.4 3.09552 15.4625 3.19926 15.5048C3.303 15.5472 3.41408 15.5687 3.52613 15.568ZM12.2704 3.64795L14.5948 5.97236L12.8919 7.63266L10.6101 5.35082L12.2704 3.64795ZM4.6926 11.2342L9.48618 6.47471L11.785 8.77359L7.01702 13.5416L4.46271 13.78L4.6926 11.2342Z" fill="#A2A6B0"/>
</svg>
