<svg width="26" height="26" viewBox="0 0 26 26" fill="none" xmlns="http://www.w3.org/2000/svg">
<g clip-path="url(#clip0_0_151)">
<path d="M25.2045 0.526471C25.129 0.338636 24.9841 0.18711 24.7998 0.103414C24.6155 0.0197186 24.406 0.0102981 24.215 0.0771123C24.0239 0.143927 23.866 0.281831 23.774 0.462137C23.682 0.642444 23.6631 0.851269 23.7212 1.04517C24.9289 4.51617 22.5317 7.10837 20.7039 8.49677L19.9655 7.43857C19.7172 7.08367 19.1621 6.78857 18.7305 6.78337L14.5861 6.80157C14.0798 6.81686 13.5871 6.96868 13.16 7.24097L0.947762 15.8041C0.663705 16.004 0.470427 16.3083 0.410245 16.6504C0.350063 16.9924 0.427882 17.3444 0.626662 17.6293L6.17636 25.5697C6.59236 26.1612 7.25666 26.0897 7.84946 25.6763L20.0617 17.1119C20.4127 16.8636 20.8183 16.328 20.9613 15.9185L22.2587 11.83C22.4017 11.4218 22.3146 10.7991 22.0663 10.4442L21.6165 9.79937C24.0709 7.91827 26.6189 4.59417 25.2045 0.526471ZM19.5222 12.6919C19.2972 12.8494 19.0434 12.961 18.7753 13.0203C18.5071 13.0797 18.2299 13.0856 17.9595 13.0378C17.6891 12.99 17.4307 12.8894 17.1992 12.7417C16.9677 12.594 16.7675 12.4021 16.6102 12.1771C16.2916 11.7216 16.1667 11.1584 16.263 10.611C16.3593 10.0635 16.6688 9.57669 17.1237 9.25727C17.4803 9.00743 17.906 8.87526 18.3414 8.87922C18.7768 8.88318 19.2001 9.02308 19.5521 9.27937C19.1985 9.49257 18.9554 9.61737 18.9099 9.63687C18.7487 9.71371 18.6184 9.843 18.5404 10.0036C18.4623 10.1641 18.4411 10.3464 18.4803 10.5206C18.5194 10.6948 18.6165 10.8506 18.7558 10.9623C18.895 11.0741 19.068 11.1352 19.2466 11.1358C19.3584 11.1358 19.4728 11.1098 19.5807 11.0591C19.8329 10.9395 20.1033 10.7978 20.3854 10.6301C20.4503 11.0202 20.4037 11.4206 20.2509 11.7854C20.0982 12.1502 19.8456 12.4644 19.5222 12.6919Z" fill="white"/>
</g>
<defs>
<clipPath id="clip0_0_151">
<rect width="26" height="26" fill="white"/>
</clipPath>
</defs>
</svg>
