<svg width="50" height="50" viewBox="0 0 50 50" fill="none" xmlns="http://www.w3.org/2000/svg">
<path d="M50 25C50 11.1929 38.8071 0 25 0C11.1929 0 0 11.1929 0 25C0 38.8071 11.1929 50 25 50H50V25Z" fill="#0156FF"/>
<path d="M23.8918 13.0128C24.2416 12.2146 25.374 12.2146 25.7237 13.0128L28.9109 20.2872C29.056 20.6183 29.3685 20.8453 29.7283 20.881L37.6315 21.6643C38.4987 21.7503 38.8486 22.8272 38.1975 23.4065L32.2642 28.6857C31.9941 28.926 31.8747 29.2933 31.952 29.6465L33.6492 37.4049C33.8354 38.2563 32.9193 38.9219 32.1672 38.4817L25.3129 34.47C25.0009 34.2874 24.6146 34.2874 24.3027 34.47L17.4484 38.4817C16.6962 38.9219 15.7801 38.2563 15.9664 37.4049L17.6636 29.6465C17.7408 29.2933 17.6215 28.926 17.3514 28.6857L11.418 23.4065C10.7669 22.8272 11.1168 21.7503 11.9841 21.6643L19.8873 20.881C20.247 20.8453 20.5595 20.6183 20.7046 20.2872L23.8918 13.0128Z" fill="white"/>
</svg>
