<svg width="59" height="21" viewBox="0 0 59 21" fill="none" xmlns="http://www.w3.org/2000/svg">
<g clip-path="url(#clip0_133_4184)">
<path d="M20.9062 7.86422L16.1837 12.0733H4.48756C3.39659 12.0718 2.34278 12.4659 1.52484 13.1812L7.42392 7.92211L7.51443 7.84265L14.9052 1.24865C16.0969 0.18653 17.77 -0.164992 19.2942 0.326501C20.8184 0.817994 21.9622 2.07783 22.2947 3.63145C22.6272 5.18506 22.0979 6.79642 20.9062 7.85854V7.86422Z" fill="#F15B41"/>
<path d="M4.48761 9.00709C6.96605 9.00709 8.97522 7.0164 8.97522 4.56077C8.97522 2.10513 6.96605 0.114441 4.48761 0.114441C2.00917 0.114441 0 2.10513 0 4.56077C0 7.0164 2.00917 9.00709 4.48761 9.00709Z" fill="#F99D1D"/>
<path d="M4.48761 12.0733C3.39665 12.0718 2.34284 12.4659 1.5249 13.1812L1.48709 13.2152C-0.355444 14.8571 -0.505734 17.6681 1.15141 19.4937C2.80855 21.3193 5.6456 21.4682 7.48814 19.8263L16.1849 12.0744L4.48761 12.0733Z" fill="#272560"/>
<path d="M16.1777 12.0767L7.47993 19.8285C6.65636 20.5623 5.58707 20.9669 4.47949 20.9637L17.8984 20.9637C20.4868 20.9227 22.3142 18.9933 22.3142 16.5179C22.3142 14.0425 20.3485 12.111 17.8984 12.0722L16.1777 12.0767Z" fill="#00B6BD"/>
<path d="M28.8199 17.2466C28.4463 17.2603 28.0849 17.1143 27.8281 16.8459C27.5766 16.575 27.4426 16.2177 27.4545 15.8504C27.451 15.4805 27.5436 15.1159 27.7235 14.7913C27.8815 14.5012 28.0744 14.2309 28.2981 13.9865L33.8504 7.78643H29.0107C28.5418 7.78643 28.2062 7.62751 28.0223 7.31194C27.8432 6.99493 27.7539 6.63616 27.7637 6.27329C27.7508 5.92357 27.8528 5.57912 28.0545 5.2914C28.2544 5.01912 28.5797 4.86464 28.9199 4.88048H37.4708C37.8323 4.86403 38.1849 4.99447 38.4465 5.24145C38.689 5.48097 38.812 5.82151 38.812 6.25286C38.8222 6.58875 38.7513 6.92223 38.6051 7.22567C38.4648 7.49005 38.2889 7.73443 38.0822 7.95216L32.3 14.3396H37.7788C38.1084 14.3315 38.4221 14.479 38.6235 14.7369C38.8381 15.0251 38.9464 15.3772 38.9304 15.7346C38.946 16.107 38.8556 16.4763 38.6695 16.8005C38.4822 17.0968 38.15 17.2478 37.6834 17.2478L28.8199 17.2466Z" fill="#272560"/>
<path d="M42.2519 17.4101C40.7302 17.4101 40.413 16.6382 40.413 15.9912V6.54686C40.413 6.05307 40.5636 5.6535 40.8624 5.3595C41.1612 5.0655 41.637 4.91567 42.2783 4.91567C42.8185 4.91567 43.246 5.03713 43.5506 5.27777C43.8552 5.51842 44.0241 5.90664 44.0241 6.4061V15.9412C44.0241 16.46 43.8586 16.8414 43.5322 17.0764C43.2058 17.3113 42.7863 17.4101 42.2519 17.4101ZM42.2519 3.90199C41.6589 3.90199 41.1727 3.73059 40.8049 3.39231C40.4371 3.05404 40.2452 2.5875 40.2452 2.01426C40.2311 1.50606 40.4333 1.01527 40.8026 0.66118C41.1669 0.308153 41.6554 0.127666 42.2519 0.127666C42.7438 0.128726 43.2219 0.28813 43.6138 0.581721C44.0414 0.892748 44.2586 1.37631 44.2586 2.0188C44.2586 2.59204 44.0701 3.05631 43.6989 3.39799C43.3276 3.73967 42.8415 3.9054 42.2519 3.9054V3.90199Z" fill="#272560"/>
<path d="M47.9916 21.0291C46.5687 21.0291 46.2676 20.2447 46.2676 19.5863V6.22677C46.2553 5.80832 46.4183 5.4034 46.7181 5.10751C47.0158 4.81351 47.4928 4.66367 48.1341 4.66367C48.533 4.65967 48.927 4.74996 49.2834 4.92702C49.6615 5.11886 49.8581 5.4946 49.8581 6.03379C49.9347 5.94676 50.017 5.85747 50.1052 5.7659C50.3467 5.52372 50.6168 5.31107 50.9097 5.13249C51.6215 4.69366 52.4463 4.46666 53.2853 4.47864C54.0893 4.46321 54.8859 4.63347 55.6115 4.97584C56.2756 5.2996 56.8538 5.77231 57.2998 6.35617C57.7647 6.98067 58.1041 7.68737 58.2997 8.43803C58.5235 9.28626 58.6332 10.1599 58.6261 11.0364C58.6344 11.9292 58.5081 12.8183 58.2515 13.6745C58.0247 14.435 57.6525 15.1455 57.155 15.7677C56.6757 16.3539 56.0682 16.8254 55.3782 17.1469C54.6274 17.4869 53.8089 17.6564 52.983 17.6429C52.43 17.6586 51.8782 17.5819 51.351 17.4159C50.9724 17.2891 50.6126 17.1132 50.281 16.8926C50.1013 16.7721 49.9355 16.6324 49.7868 16.476V19.5182C49.7868 20.0472 49.6408 20.4377 49.3524 20.6783C49.0639 20.919 48.6202 21.0291 47.9916 21.0291ZM52.3658 7.50494C51.9742 7.49559 51.5868 7.58589 51.2407 7.76716C50.915 7.94956 50.6359 8.20311 50.4247 8.50841C50.1874 8.85384 50.0142 9.23821 49.9132 9.64356C49.7943 10.1146 49.736 10.5986 49.7397 11.0841C49.7397 12.1897 49.9695 13.0762 50.4293 13.7199C50.889 14.3635 51.5131 14.6643 52.3704 14.6643C53.2278 14.6643 53.8519 14.3419 54.2852 13.6779C54.7185 13.0138 54.9495 12.1295 54.9495 11.0841C54.9509 10.5999 54.8907 10.1174 54.7702 9.6481C54.6692 9.2445 54.4998 8.86069 54.2691 8.51295C54.0639 8.20723 53.7882 7.95396 53.4646 7.77397C53.1278 7.59253 52.7494 7.49987 52.3658 7.50494Z" fill="#272560"/>
</g>
<defs>
<clipPath id="clip0_133_4184">
<rect width="59" height="21" fill="white"/>
</clipPath>
</defs>
</svg>
