<svg width="65" height="65" viewBox="0 0 65 65" fill="none" xmlns="http://www.w3.org/2000/svg">
<circle cx="32.5" cy="32.5" r="32.5" fill="#0156FF"/>
<path d="M35.82 44.6483L33 47.4683L30.18 44.6483C24.6375 43.3683 20.5 38.3983 20.5 32.4683C20.5 25.5683 26.1 19.9683 33 19.9683C39.9 19.9683 45.5 25.5683 45.5 32.4683C45.5 38.3983 41.3625 43.3683 35.82 44.6483ZM25.5287 36.7383C27.3637 39.4758 30.1187 41.2183 33.2 41.2183C36.28 41.2183 39.0362 39.477 40.87 36.7383C38.7897 34.794 36.0474 33.7143 33.2 33.7183C30.3521 33.714 27.6094 34.7937 25.5287 36.7383ZM33 31.2183C33.9946 31.2183 34.9484 30.8232 35.6517 30.1199C36.3549 29.4167 36.75 28.4628 36.75 27.4683C36.75 26.4737 36.3549 25.5199 35.6517 24.8166C34.9484 24.1133 33.9946 23.7183 33 23.7183C32.0054 23.7183 31.0516 24.1133 30.3483 24.8166C29.6451 25.5199 29.25 26.4737 29.25 27.4683C29.25 28.4628 29.6451 29.4167 30.3483 30.1199C31.0516 30.8232 32.0054 31.2183 33 31.2183Z" fill="white"/>
</svg>
