<svg width="50" height="50" viewBox="0 0 50 50" fill="none" xmlns="http://www.w3.org/2000/svg">
<path d="M50 25C50 11.1929 38.8071 0 25 0C11.1929 0 0 11.1929 0 25C0 38.8071 11.1929 50 25 50H50V25Z" fill="#0156FF"/>
<path d="M13.3516 14.8511C12.6405 14.8511 11.9585 15.1336 11.4557 15.6364C10.9529 16.1392 10.6704 16.8212 10.6704 17.5322V32.2787H13.3516C13.3516 33.3453 13.7753 34.3682 14.5295 35.1225C15.2837 35.8767 16.3067 36.3004 17.3733 36.3004C18.44 36.3004 19.4629 35.8767 20.2171 35.1225C20.9714 34.3682 21.3951 33.3453 21.3951 32.2787H29.4386C29.4386 33.3453 29.8623 34.3682 30.6165 35.1225C31.3707 35.8767 32.3937 36.3004 33.4603 36.3004C34.527 36.3004 35.5499 35.8767 36.3041 35.1225C37.0584 34.3682 37.4821 33.3453 37.4821 32.2787H40.1632V25.5757L36.1415 20.2134H32.1197V14.8511H13.3516ZM32.1197 22.2243H35.4712L38.1122 25.5757H32.1197V22.2243ZM17.3733 30.2678C17.9066 30.2678 18.4181 30.4796 18.7952 30.8568C19.1723 31.2339 19.3842 31.7453 19.3842 32.2787C19.3842 32.812 19.1723 33.3235 18.7952 33.7006C18.4181 34.0777 17.9066 34.2895 17.3733 34.2895C16.84 34.2895 16.3285 34.0777 15.9514 33.7006C15.5743 33.3235 15.3625 32.812 15.3625 32.2787C15.3625 31.7453 15.5743 31.2339 15.9514 30.8568C16.3285 30.4796 16.84 30.2678 17.3733 30.2678ZM33.4603 30.2678C33.9936 30.2678 34.5051 30.4796 34.8822 30.8568C35.2593 31.2339 35.4712 31.7453 35.4712 32.2787C35.4712 32.812 35.2593 33.3235 34.8822 33.7006C34.5051 34.0777 33.9936 34.2895 33.4603 34.2895C32.927 34.2895 32.4155 34.0777 32.0384 33.7006C31.6613 33.3235 31.4495 32.812 31.4495 32.2787C31.4495 31.7453 31.6613 31.2339 32.0384 30.8568C32.4155 30.4796 32.927 30.2678 33.4603 30.2678Z" fill="white"/>
</svg>
