<svg width="13" height="12" viewBox="0 0 13 12" fill="none" xmlns="http://www.w3.org/2000/svg">
<path d="M6.21099 0.0564814C6.24955 -0.0188328 6.35719 -0.0188331 6.39576 0.0564811L8.3057 3.78655C8.32077 3.81599 8.34898 3.83649 8.38164 3.84172L12.5193 4.50553C12.6029 4.51893 12.6362 4.6213 12.5764 4.68125L9.61914 7.65037C9.5958 7.67381 9.58503 7.70697 9.59014 7.73965L10.2374 11.88C10.2505 11.9636 10.1634 12.0268 10.088 11.9886L6.35031 10.0935C6.32081 10.0786 6.28594 10.0786 6.25644 10.0935L2.51879 11.9886C2.44332 12.0268 2.35624 11.9636 2.36931 11.88L3.01661 7.73965C3.02172 7.70697 3.01095 7.67381 2.9876 7.65037L0.0303022 4.68125C-0.0294089 4.6213 0.00385278 4.51893 0.0873977 4.50553L4.22511 3.84172C4.25777 3.83649 4.28597 3.81599 4.30105 3.78655L6.21099 0.0564814Z" fill="#E9A426"/>
</svg>
