<svg width="16" height="14" viewBox="0 0 16 14" fill="none" xmlns="http://www.w3.org/2000/svg">
<path d="M7.27887 2.48232L7.99836 3.20819L8.71785 2.48232C9.39985 1.79428 10.4484 1.01305 11.5408 1.01305C12.6232 1.01305 13.4762 1.37343 14.0524 1.92783C14.6257 2.47948 14.9866 3.2814 14.9866 4.28972C14.9866 5.37468 14.5517 6.29862 13.8065 7.19376C13.0418 8.11237 12.011 8.93137 10.8912 9.81571L10.8651 9.83628C9.91599 10.5855 8.85988 11.4191 7.99885 12.3515C7.14625 11.4272 6.10013 10.6002 5.15948 9.85662L5.10817 9.81606L5.10776 9.81574C3.98763 8.93111 2.95698 8.11193 2.19256 7.19335C1.44769 6.29826 1.01305 5.37444 1.01305 4.28972C1.01305 3.2814 1.37389 2.47951 1.94731 1.92787C2.52358 1.37348 3.37675 1.01305 4.45953 1.01305C5.55062 1.01305 6.59608 1.79348 7.27887 2.48232Z" stroke="#A2A6B0" stroke-width="2"/>
</svg>
