<svg width="65" height="65" viewBox="0 0 65 65" fill="none" xmlns="http://www.w3.org/2000/svg">
<circle cx="32.5" cy="32.5" r="32.5" fill="#0156FF"/>
<g clip-path="url(#clip0_0_251)">
<path d="M45.2047 20.9948C45.1293 20.807 44.9844 20.6554 44.8001 20.5717C44.6158 20.488 44.4063 20.4786 44.2152 20.5454C44.0242 20.6122 43.8662 20.7501 43.7742 20.9305C43.6823 21.1108 43.6633 21.3196 43.7214 21.5135C44.9291 24.9845 42.5319 27.5767 40.7041 28.9651L39.9657 27.9069C39.7174 27.552 39.1623 27.2569 38.7307 27.2517L34.5863 27.2699C34.08 27.2852 33.5873 27.437 33.1602 27.7093L20.948 36.2724C20.6639 36.4723 20.4707 36.7766 20.4105 37.1187C20.3503 37.4608 20.4281 37.8127 20.6269 38.0976L26.1766 46.038C26.5926 46.6295 27.2569 46.558 27.8497 46.1446L40.0619 37.5802C40.4129 37.3319 40.8185 36.7963 40.9615 36.3868L42.2589 32.2983C42.4019 31.8901 42.3148 31.2674 42.0665 30.9125L41.6167 30.2677C44.0711 28.3866 46.6191 25.0625 45.2047 20.9948ZM39.5224 33.1602C39.2974 33.3177 39.0436 33.4293 38.7755 33.4886C38.5074 33.548 38.2302 33.5539 37.9597 33.5061C37.6893 33.4583 37.431 33.3577 37.1994 33.21C36.9679 33.0623 36.7678 32.8705 36.6104 32.6454C36.2918 32.1899 36.1669 31.6267 36.2632 31.0793C36.3595 30.5319 36.669 30.045 37.1239 29.7256C37.4805 29.4757 37.9063 29.3436 38.3416 29.3475C38.777 29.3515 39.2003 29.4914 39.5523 29.7477C39.1987 29.9609 38.9556 30.0857 38.9101 30.1052C38.749 30.182 38.6187 30.3113 38.5406 30.4719C38.4626 30.6324 38.4414 30.8148 38.4805 30.9889C38.5196 31.1631 38.6168 31.3189 38.756 31.4306C38.8952 31.5424 39.0683 31.6036 39.2468 31.6041C39.3586 31.6041 39.473 31.5781 39.5809 31.5274C39.8331 31.4078 40.1035 31.2661 40.3856 31.0984C40.4505 31.4885 40.4039 31.8889 40.2512 32.2537C40.0985 32.6185 39.8459 32.9327 39.5224 33.1602Z" fill="white"/>
</g>
<defs>
<clipPath id="clip0_0_251">
<rect width="26" height="26" fill="white" transform="translate(20 20.4683)"/>
</clipPath>
</defs>
</svg>
