<svg width="72" height="22" viewBox="0 0 72 22" fill="none" xmlns="http://www.w3.org/2000/svg">
<path d="M55.6932 7H52.0409C51.8261 7 51.6113 7.21053 51.5039 7.42105L50 16.6842C50 16.8947 50.1074 17 50.3223 17H52.2558C52.4706 17 52.578 16.8947 52.578 16.6842L53.0077 14.0526C53.0077 13.8421 53.2225 13.6316 53.5448 13.6316H54.7264C57.197 13.6316 58.5935 12.4737 58.9157 10.1579C59.1306 9.21053 58.9157 8.36842 58.486 7.84211C57.8415 7.31579 56.8748 7 55.6932 7ZM56.1228 10.4737C55.908 11.7368 54.9412 11.7368 53.9745 11.7368H53.33L53.7596 9.31579C53.7596 9.21053 53.8671 9.10526 54.0819 9.10526H54.2967C54.9412 9.10526 55.5858 9.10526 55.908 9.52631C56.1228 9.63158 56.1228 9.94737 56.1228 10.4737Z" fill="#139AD6"/>
<path d="M27.6567 6.6001H23.771C23.5425 6.6001 23.3139 6.82867 23.1996 7.05724L21.5996 17.1144C21.5996 17.3429 21.7139 17.4572 21.9425 17.4572H23.771C23.9996 17.4572 24.2282 17.2286 24.3425 17.0001L24.7996 14.2572C24.7996 14.0286 25.0282 13.8001 25.371 13.8001H26.6282C29.2567 13.8001 30.7424 12.5429 31.0853 10.0287C31.3139 9.00009 31.0853 8.08581 30.6282 7.51438C29.9424 6.94296 29.0282 6.6001 27.6567 6.6001ZM28.1139 10.3715C27.8853 11.7429 26.8567 11.7429 25.8282 11.7429H25.2567L25.7139 9.11438C25.7139 9.00009 25.8282 8.88581 26.0567 8.88581H26.2853C26.971 8.88581 27.6567 8.8858 27.9996 9.34295C28.1139 9.45723 28.2282 9.80009 28.1139 10.3715Z" fill="#263B80"/>
<path d="M39.4282 10.2574H37.5996C37.4854 10.2574 37.2568 10.3717 37.2568 10.4859L37.1425 11.0574L37.0282 10.8288C36.5711 10.2574 35.7711 10.0288 34.8568 10.0288C32.7997 10.0288 30.9711 11.6288 30.6282 13.8002C30.3997 14.9431 30.7425 15.9717 31.3139 16.6574C31.8854 17.3431 32.6854 17.5716 33.7139 17.5716C35.4282 17.5716 36.3425 16.5431 36.3425 16.5431L36.2282 17.1145C36.2282 17.3431 36.3425 17.4574 36.5711 17.4574H38.2854C38.5139 17.4574 38.7425 17.2288 38.8568 17.0002L39.8854 10.6002C39.7711 10.486 39.5425 10.2574 39.4282 10.2574ZM36.7996 13.9145C36.5711 14.9431 35.7711 15.7431 34.6282 15.7431C34.0568 15.7431 33.5997 15.5145 33.3711 15.2859C33.1425 14.9431 33.0282 14.4859 33.0282 13.9145C33.1425 12.8859 34.0568 12.0859 35.0854 12.0859C35.6568 12.0859 35.9996 12.3145 36.3425 12.5431C36.6854 12.8859 36.7996 13.4574 36.7996 13.9145Z" fill="#263B80"/>
<path d="M67.51 10.2424H65.5498C65.4273 10.2424 65.1823 10.3636 65.1823 10.4848L65.0598 11.0909L64.9373 10.8485C64.4472 10.2424 63.5897 10 62.6096 10C60.4044 10 58.4443 11.697 58.0767 14C57.8317 15.2121 58.1993 16.303 58.8118 17.0303C59.4243 17.7576 60.2819 18 61.3845 18C63.2221 18 64.2022 16.9091 64.2022 16.9091L64.0797 17.5151C64.0797 17.7576 64.2022 17.8788 64.4472 17.8788H66.2849C66.5299 17.8788 66.7749 17.6364 66.8974 17.3939L68 10.6061C67.8775 10.4848 67.755 10.2424 67.51 10.2424ZM64.6922 14.1212C64.4472 15.2121 63.5897 16.0606 62.3646 16.0606C61.752 16.0606 61.262 15.8182 61.017 15.5758C60.7719 15.2121 60.6494 14.7273 60.6494 14.1212C60.772 13.0303 61.752 12.1818 62.8546 12.1818C63.4672 12.1818 63.8347 12.4242 64.2022 12.6667C64.6922 13.0303 64.8148 13.6364 64.6922 14.1212Z" fill="#139AD6"/>
<path d="M49.7137 10H47.7899C47.5636 10 47.4504 10.1149 47.3372 10.2299L44.8476 14.1379L43.716 10.4598C43.6028 10.2299 43.4896 10.1149 43.1501 10.1149H41.3395C41.1132 10.1149 41 10.3448 41 10.5747L43.037 16.6667L41.1132 19.4253C41 19.6552 41.1132 20 41.3395 20H43.1501C43.3765 20 43.4896 19.8851 43.6028 19.7701L49.8269 10.6897C50.1664 10.3448 49.94 10 49.7137 10Z" fill="#263B80"/>
<path d="M69.5556 7.27587L68 17.6541C68 17.8847 68.1111 18 68.3333 18H69.8889C70.1111 18 70.3333 17.7694 70.4444 17.5387L72 7.39118C72 7.16055 71.8889 7.04524 71.6667 7.04524H69.8889C69.7778 6.92992 69.6667 7.04524 69.5556 7.27587Z" fill="#139AD6"/>
<path d="M13.0638 3.35211C12.2686 2.4507 10.7918 2 8.74706 2H3.06715C2.72636 2 2.38556 2.33803 2.27196 2.67605L0 17.4366C0 17.7746 0.227196 18 0.454393 18H3.97594L4.88472 12.4789V12.7042C4.99832 12.3662 5.33911 12.0282 5.67991 12.0282H7.38388C10.6782 12.0282 13.1774 10.6761 13.9726 6.95775C13.9726 6.84507 13.9726 6.73239 13.9726 6.61972C13.859 6.61972 13.859 6.61972 13.9726 6.61972C14.0862 5.15493 13.859 4.25352 13.0638 3.35211Z" fill="#263B80"/>
<path d="M13.712 6C13.712 6.11765 13.712 6.2353 13.712 6.35294C12.9566 10.3529 10.5826 11.6471 7.45314 11.6471H5.83448C5.51075 11.6471 5.18702 12 5.07911 12.3529L4 19.5294C4 19.7647 4.10791 20 4.43164 20H7.23732C7.56105 20 7.88479 19.7647 7.88479 19.4118V19.2941L8.42434 15.6471V15.4118C8.42434 15.0588 8.74807 14.8235 9.07181 14.8235H9.50345C12.2012 14.8235 14.3594 13.6471 14.899 10.1176C15.1148 8.70588 15.0069 7.41176 14.3594 6.58824C14.2515 6.35294 14.0357 6.11765 13.712 6Z" fill="#139AD6"/>
<path d="M13 6.35C12.8889 6.35 12.7778 6.23333 12.6667 6.23333C12.5556 6.23333 12.4444 6.23333 12.3333 6.11666C11.8889 6 11.4444 6 10.8889 6H6.55556C6.44444 6 6.33333 6 6.22222 6.11666C6 6.23333 5.88889 6.46666 5.88889 6.7L5 12.7667V13C5.11111 12.65 5.44444 12.3 5.77778 12.3H7.44444C10.6667 12.3 13.1111 10.9 13.8889 7.05C13.8889 6.93333 13.8889 6.81666 14 6.7C13.7778 6.58333 13.6667 6.46667 13.4444 6.46667C13.1111 6.35 13.1111 6.35 13 6.35Z" fill="#232C65"/>
</svg>
