<svg width="18" height="17" viewBox="0 0 18 17" fill="none" xmlns="http://www.w3.org/2000/svg">
<path d="M16.447 0.417725H0.806957C0.43083 0.417725 0.126953 0.699248 0.126953 1.04771V15.5373C0.126953 15.8858 0.43083 16.1673 0.806957 16.1673H16.447C16.8232 16.1673 17.127 15.8858 17.127 15.5373V1.04771C17.127 0.699248 16.8232 0.417725 16.447 0.417725ZM14.4835 5.01463H13.1256C12.061 5.01463 11.8549 5.48318 11.8549 6.17223V7.69009H14.3964L14.0649 10.0663H11.8549V16.1673H9.205V10.0683H6.98861V7.69009H9.205V5.93795C9.205 3.90429 10.5459 2.79591 12.5051 2.79591C13.4444 2.79591 14.2498 2.86088 14.4857 2.89041V5.01463H14.4835Z" fill="white"/>
</svg>
