<svg width="66" height="66" viewBox="0 0 66 66" fill="none" xmlns="http://www.w3.org/2000/svg">
<circle cx="32.7939" cy="32.7341" r="32.5" fill="#0156FF"/>
<g clip-path="url(#clip0_4067_593)">
<path d="M45.4987 21.2289C45.4232 21.0411 45.2783 20.8896 45.094 20.8059C44.9097 20.7222 44.7002 20.7127 44.5092 20.7796C44.3181 20.8464 44.1602 20.9843 44.0682 21.1646C43.9762 21.3449 43.9573 21.5537 44.0154 21.7476C45.2231 25.2186 42.8259 27.8108 40.9981 29.1992L40.2597 28.141C40.0114 27.7861 39.4563 27.491 39.0247 27.4858L34.8803 27.504C34.374 27.5193 33.8812 27.6711 33.4542 27.9434L21.242 36.5065C20.9579 36.7064 20.7646 37.0107 20.7044 37.3528C20.6443 37.6949 20.7221 38.0469 20.9209 38.3317L26.4706 46.2721C26.8866 46.8636 27.5509 46.7921 28.1437 46.3787L40.3559 37.8143C40.7069 37.566 41.1125 37.0304 41.2555 36.6209L42.5529 32.5324C42.6959 32.1242 42.6088 31.5015 42.3605 31.1466L41.9107 30.5018C44.3651 28.6207 46.9131 25.2966 45.4987 21.2289ZM39.8164 33.3943C39.5914 33.5518 39.3376 33.6634 39.0694 33.7228C38.8013 33.7821 38.5241 33.7881 38.2537 33.7403C37.9833 33.6925 37.7249 33.5918 37.4934 33.4441C37.2619 33.2965 37.0617 33.1046 36.9044 32.8795C36.5858 32.4241 36.4609 31.8608 36.5572 31.3134C36.6534 30.766 36.963 30.2791 37.4179 29.9597C37.7745 29.7099 38.2002 29.5777 38.6356 29.5817C39.071 29.5856 39.4943 29.7255 39.8463 29.9818C39.4927 30.195 39.2496 30.3198 39.2041 30.3393C39.0429 30.4162 38.9126 30.5454 38.8346 30.706C38.7565 30.8666 38.7353 31.0489 38.7745 31.2231C38.8136 31.3973 38.9107 31.553 39.0499 31.6648C39.1892 31.7765 39.3622 31.8377 39.5408 31.8382C39.6526 31.8382 39.767 31.8122 39.8749 31.7615C40.1271 31.6419 40.3975 31.5002 40.6796 31.3325C40.7444 31.7226 40.6979 32.1231 40.5451 32.4878C40.3924 32.8526 40.1398 33.1668 39.8164 33.3943Z" fill="white"/>
</g>
<defs>
<clipPath id="clip0_4067_593">
<rect width="26" height="26" fill="white" transform="translate(20.2939 20.7024)"/>
</clipPath>
</defs>
</svg>
