<svg width="66" height="66" viewBox="0 0 66 66" fill="none" xmlns="http://www.w3.org/2000/svg">
<circle cx="33.2051" cy="32.7341" r="32.5" fill="#0156FF"/>
<path d="M33.6172 20.6266C26.8119 20.6266 21.2754 26.1631 21.2754 32.9684V38.0816C21.2754 39.3454 22.3824 40.3734 23.7437 40.3734H24.9779C25.3052 40.3734 25.6192 40.2434 25.8506 40.0119C26.0821 39.7805 26.2121 39.4666 26.2121 39.1392V32.7919C26.2121 32.4645 26.0821 32.1506 25.8506 31.9192C25.6192 31.6877 25.3052 31.5577 24.9779 31.5577H23.8573C24.5435 26.7814 28.6533 23.0949 33.6172 23.0949C38.581 23.0949 42.6908 26.7814 43.377 31.5577H42.2564C41.9291 31.5577 41.6152 31.6877 41.3837 31.9192C41.1523 32.1506 41.0222 32.4645 41.0222 32.7919V40.3734C41.0222 41.7347 39.9152 42.8418 38.5539 42.8418H36.0855V41.6076H31.1488V45.3101H38.5539C41.2765 45.3101 43.4906 43.096 43.4906 40.3734C44.8519 40.3734 45.9589 39.3454 45.9589 38.0816V32.9684C45.9589 26.1631 40.4224 20.6266 33.6172 20.6266Z" fill="white"/>
</svg>
