<svg width="66" height="66" viewBox="0 0 66 66" fill="none" xmlns="http://www.w3.org/2000/svg">
<circle cx="32.999" cy="32.7341" r="32.5" fill="#0156FF"/>
<g clip-path="url(#clip0_4067_570)">
<path d="M36.319 44.8824L33.499 47.7024L30.679 44.8824C25.1365 43.6024 20.999 38.6324 20.999 32.7024C20.999 25.8024 26.599 20.2024 33.499 20.2024C40.399 20.2024 45.999 25.8024 45.999 32.7024C45.999 38.6324 41.8615 43.6024 36.319 44.8824ZM26.0278 36.9724C27.8628 39.7099 30.6178 41.4524 33.699 41.4524C36.779 41.4524 39.5353 39.7111 41.369 36.9724C39.2887 35.0281 36.5465 33.9484 33.699 33.9524C30.8512 33.9481 28.1084 35.0278 26.0278 36.9724ZM33.499 31.4524C34.4936 31.4524 35.4474 31.0573 36.1507 30.354C36.8539 29.6508 37.249 28.697 37.249 27.7024C37.249 26.7078 36.8539 25.754 36.1507 25.0507C35.4474 24.3475 34.4936 23.9524 33.499 23.9524C32.5045 23.9524 31.5506 24.3475 30.8474 25.0507C30.1441 25.754 29.749 26.7078 29.749 27.7024C29.749 28.697 30.1441 29.6508 30.8474 30.354C31.5506 31.0573 32.5045 31.4524 33.499 31.4524Z" fill="white"/>
</g>
<defs>
<clipPath id="clip0_4067_570">
<rect width="30" height="30" fill="white" transform="translate(18.499 17.7024)"/>
</clipPath>
</defs>
</svg>
