<svg width="18" height="17" viewBox="0 0 18 17" fill="none" xmlns="http://www.w3.org/2000/svg">
<path d="M8.73871 5.7235C7.16093 5.7235 5.87335 6.91637 5.87335 8.37809C5.87335 9.8398 7.16093 11.0327 8.73871 11.0327C10.3165 11.0327 11.6041 9.8398 11.6041 8.37809C11.6041 6.91637 10.3165 5.7235 8.73871 5.7235ZM17.3326 8.37809C17.3326 7.27881 17.3434 6.1895 17.2767 5.09222C17.2101 3.8177 16.8963 2.68656 15.8903 1.75457C14.8821 0.820587 13.6633 0.531829 12.2876 0.470094C11.1011 0.40836 9.92526 0.418317 8.74085 0.418317C7.5543 0.418317 6.37849 0.40836 5.19409 0.470094C3.81837 0.531829 2.59742 0.822578 1.59143 1.75457C0.583287 2.68855 0.271602 3.8177 0.204965 5.09222C0.138329 6.19149 0.149077 7.28081 0.149077 8.37809C0.149077 9.47537 0.138329 10.5667 0.204965 11.664C0.271602 12.9385 0.585437 14.0696 1.59143 15.0016C2.59957 15.9356 3.81837 16.2243 5.19409 16.2861C6.38064 16.3478 7.55645 16.3379 8.74085 16.3379C9.92741 16.3379 11.1032 16.3478 12.2876 16.2861C13.6633 16.2243 14.8843 15.9336 15.8903 15.0016C16.8984 14.0676 17.2101 12.9385 17.2767 11.664C17.3455 10.5667 17.3326 9.47736 17.3326 8.37809ZM8.73871 12.4625C6.29896 12.4625 4.32996 10.6384 4.32996 8.37809C4.32996 6.11781 6.29896 4.29365 8.73871 4.29365C11.1785 4.29365 13.1474 6.11781 13.1474 8.37809C13.1474 10.6384 11.1785 12.4625 8.73871 12.4625ZM13.328 5.08027C12.7584 5.08027 12.2984 4.6541 12.2984 4.12637C12.2984 3.59864 12.7584 3.17247 13.328 3.17247C13.8976 3.17247 14.3576 3.59864 14.3576 4.12637C14.3578 4.25168 14.3313 4.37579 14.2796 4.4916C14.2279 4.6074 14.1521 4.71262 14.0565 4.80123C13.9608 4.88984 13.8472 4.9601 13.7222 5.00798C13.5972 5.05586 13.4633 5.08043 13.328 5.08027Z" fill="white"/>
</svg>
