<svg width="74" height="14" viewBox="0 0 74 14" fill="none" xmlns="http://www.w3.org/2000/svg">
<path d="M6.41099 0.914954C6.44815 0.842389 6.55185 0.842389 6.58901 0.914954L8.42922 4.50884C8.44375 4.53721 8.47092 4.55695 8.50239 4.562L12.489 5.20157C12.5695 5.21449 12.6016 5.31312 12.544 5.37088L9.69471 8.2316C9.67222 8.25418 9.66184 8.28612 9.66677 8.31761L10.2904 12.3068C10.303 12.3873 10.2191 12.4483 10.1464 12.4114L6.54522 10.5855C6.5168 10.5711 6.4832 10.5711 6.45478 10.5855L2.85358 12.4114C2.78087 12.4483 2.69697 12.3873 2.70956 12.3068L3.33323 8.31761C3.33816 8.28612 3.32778 8.25418 3.30529 8.2316L0.455954 5.37088C0.398423 5.31312 0.43047 5.21449 0.510965 5.20157L4.49761 4.562C4.52908 4.55695 4.55625 4.53721 4.57078 4.50884L6.41099 0.914954Z" fill="#E9A426"/>
<path d="M21.5672 0.914954C21.6044 0.842389 21.7081 0.842389 21.7453 0.914954L23.5855 4.50884C23.6 4.53721 23.6272 4.55695 23.6586 4.562L27.6453 5.20157C27.7258 5.21449 27.7578 5.31312 27.7003 5.37088L24.851 8.2316C24.8285 8.25418 24.8181 8.28612 24.823 8.31761L25.4467 12.3068C25.4593 12.3873 25.3754 12.4483 25.3027 12.4114L21.7015 10.5855C21.673 10.5711 21.6395 10.5711 21.611 10.5855L18.0098 12.4114C17.9371 12.4483 17.8532 12.3873 17.8658 12.3068L18.4895 8.31761C18.4944 8.28612 18.484 8.25418 18.4615 8.2316L15.6122 5.37088C15.5547 5.31312 15.5867 5.21449 15.6672 5.20157L19.6539 4.562C19.6853 4.55695 19.7125 4.53721 19.727 4.50884L21.5672 0.914954Z" fill="#E9A426"/>
<path d="M36.5672 0.914954C36.6044 0.842389 36.7081 0.842389 36.7453 0.914954L38.5855 4.50884C38.6 4.53721 38.6272 4.55695 38.6586 4.562L42.6453 5.20157C42.7258 5.21449 42.7578 5.31312 42.7003 5.37088L39.851 8.2316C39.8285 8.25418 39.8181 8.28612 39.823 8.31761L40.4467 12.3068C40.4593 12.3873 40.3754 12.4483 40.3027 12.4114L36.7015 10.5855C36.673 10.5711 36.6395 10.5711 36.611 10.5855L33.0098 12.4114C32.9371 12.4483 32.8532 12.3873 32.8658 12.3068L33.4895 8.31761C33.4944 8.28612 33.484 8.25418 33.4615 8.2316L30.6122 5.37088C30.5547 5.31312 30.5867 5.21449 30.6672 5.20157L34.6539 4.562C34.6853 4.55695 34.7125 4.53721 34.727 4.50884L36.5672 0.914954Z" fill="#E9A426"/>
<path d="M51.5672 0.914954C51.6044 0.842389 51.7081 0.842389 51.7453 0.914954L53.5855 4.50884C53.6 4.53721 53.6272 4.55695 53.6586 4.562L57.6453 5.20157C57.7258 5.21449 57.7578 5.31312 57.7003 5.37088L54.851 8.2316C54.8285 8.25418 54.8181 8.28612 54.823 8.31761L55.4467 12.3068C55.4593 12.3873 55.3754 12.4483 55.3027 12.4114L51.7015 10.5855C51.673 10.5711 51.6395 10.5711 51.611 10.5855L48.0098 12.4114C47.9371 12.4483 47.8532 12.3873 47.8658 12.3068L48.4895 8.31761C48.4944 8.28612 48.484 8.25418 48.4615 8.2316L45.6122 5.37088C45.5547 5.31312 45.5867 5.21449 45.6672 5.20157L49.6539 4.562C49.6853 4.55695 49.7125 4.53721 49.727 4.50884L51.5672 0.914954Z" fill="#E9A426"/>
<path d="M66.5672 0.914954C66.6044 0.842389 66.7081 0.842389 66.7453 0.914954L68.5855 4.50884C68.6 4.53721 68.6272 4.55695 68.6586 4.562L72.6453 5.20157C72.7258 5.21449 72.7578 5.31312 72.7003 5.37088L69.851 8.2316C69.8285 8.25418 69.8181 8.28612 69.823 8.31761L70.4467 12.3068C70.4593 12.3873 70.3754 12.4483 70.3027 12.4114L66.7015 10.5855C66.673 10.5711 66.6395 10.5711 66.611 10.5855L63.0098 12.4114C62.9371 12.4483 62.8532 12.3873 62.8658 12.3068L63.4895 8.31761C63.4944 8.28612 63.484 8.25418 63.4615 8.2316L60.6122 5.37088C60.5547 5.31312 60.5867 5.21449 60.6672 5.20157L64.6539 4.562C64.6853 4.55695 64.7125 4.53721 64.727 4.50884L66.5672 0.914954Z" fill="#C4C4C4"/>
</svg>
